<svg width="131" height="50" viewBox="0 0 131 50" fill="none" xmlns="http://www.w3.org/2000/svg">
<g clip-path="url(#clip0_1_307)">
<path d="M38.6116 21.8333H41.7516L43.1516 31.8533H43.1916L44.5916 21.8333H47.7316V35.8333H45.6516V25.2333H45.6116L44.0116 35.8333H42.1716L40.5716 25.2333H40.5316V35.8333H38.6116V21.8333ZM51.0733 21.8333H54.0533L56.3333 35.8333H54.1333L53.7333 33.0533V33.0933H51.2333L50.8333 35.8333H48.7933L51.0733 21.8333ZM53.4733 31.1933L52.4933 24.2733H52.4533L51.4933 31.1933H53.4733ZM57.4008 21.8333H59.6008V27.7333L62.4008 21.8333H64.6008L61.9808 26.9733L64.6408 35.8333H62.3408L60.4808 29.5933L59.6008 31.3733V35.8333H57.4008V21.8333ZM65.682 21.8333H67.882V33.8333H71.502V35.8333H65.682V21.8333ZM72.557 21.8333H78.557V23.8333H74.757V27.5333H77.777V29.5333H74.757V33.8333H78.557V35.8333H72.557V21.8333ZM79.8225 21.8333H83.0825C84.2158 21.8333 85.0425 22.1 85.5625 22.6333C86.0825 23.1533 86.3425 23.96 86.3425 25.0533V25.9133C86.3425 27.3667 85.8625 28.2867 84.9025 28.6733V28.7133C85.4358 28.8733 85.8091 29.2 86.0225 29.6933C86.2491 30.1867 86.3625 30.8467 86.3625 31.6733V34.1333C86.3625 34.5333 86.3758 34.86 86.4025 35.1133C86.4291 35.3533 86.4958 35.5933 86.6025 35.8333H84.3625C84.2825 35.6067 84.2291 35.3933 84.2025 35.1933C84.1758 34.9933 84.1625 34.6333 84.1625 34.1133V31.5533C84.1625 30.9133 84.0558 30.4667 83.8425 30.2133C83.6425 29.96 83.2891 29.8333 82.7825 29.8333H82.0225V35.8333H79.8225V21.8333ZM82.8225 27.8333C83.2625 27.8333 83.5891 27.72 83.8025 27.4933C84.0291 27.2667 84.1425 26.8867 84.1425 26.3533V25.2733C84.1425 24.7667 84.0491 24.4 83.8625 24.1733C83.6891 23.9467 83.4091 23.8333 83.0225 23.8333H82.0225V27.8333H82.8225ZM94.212 36.0333C93.1454 36.0333 92.332 35.7333 91.772 35.1333C91.212 34.52 90.932 33.6467 90.932 32.5133V25.1533C90.932 24.02 91.212 23.1533 91.772 22.5533C92.332 21.94 93.1454 21.6333 94.212 21.6333C95.2787 21.6333 96.092 21.94 96.652 22.5533C97.212 23.1533 97.4921 24.02 97.4921 25.1533V26.3533H95.412V25.0133C95.412 24.0933 95.032 23.6333 94.272 23.6333C93.512 23.6333 93.132 24.0933 93.132 25.0133V32.6733C93.132 33.58 93.512 34.0333 94.272 34.0333C95.032 34.0333 95.412 33.58 95.412 32.6733V29.9333H94.312V27.9333H97.4921V32.5133C97.4921 33.6467 97.212 34.52 96.652 35.1333C96.092 35.7333 95.2787 36.0333 94.212 36.0333ZM98.9045 21.8333H102.165C103.298 21.8333 104.125 22.1 104.645 22.6333C105.165 23.1533 105.425 23.96 105.425 25.0533V25.9133C105.425 27.3667 104.945 28.2867 103.985 28.6733V28.7133C104.518 28.8733 104.891 29.2 105.105 29.6933C105.331 30.1867 105.445 30.8467 105.445 31.6733V34.1333C105.445 34.5333 105.458 34.86 105.485 35.1133C105.511 35.3533 105.578 35.5933 105.685 35.8333H103.445C103.365 35.6067 103.311 35.3933 103.285 35.1933C103.258 34.9933 103.245 34.6333 103.245 34.1133V31.5533C103.245 30.9133 103.138 30.4667 102.925 30.2133C102.725 29.96 102.371 29.8333 101.865 29.8333H101.105V35.8333H98.9045V21.8333ZM101.905 27.8333C102.345 27.8333 102.671 27.72 102.885 27.4933C103.111 27.2667 103.225 26.8867 103.225 26.3533V25.2733C103.225 24.7667 103.131 24.4 102.945 24.1733C102.771 23.9467 102.491 23.8333 102.105 23.8333H101.105V27.8333H101.905ZM110.151 36.0333C109.071 36.0333 108.245 35.7267 107.671 35.1133C107.098 34.5 106.811 33.6333 106.811 32.5133V25.1533C106.811 24.0333 107.098 23.1667 107.671 22.5533C108.245 21.94 109.071 21.6333 110.151 21.6333C111.231 21.6333 112.058 21.94 112.631 22.5533C113.205 23.1667 113.491 24.0333 113.491 25.1533V32.5133C113.491 33.6333 113.205 34.5 112.631 35.1133C112.058 35.7267 111.231 36.0333 110.151 36.0333ZM110.151 34.0333C110.911 34.0333 111.291 33.5733 111.291 32.6533V25.0133C111.291 24.0933 110.911 23.6333 110.151 23.6333C109.391 23.6333 109.011 24.0933 109.011 25.0133V32.6533C109.011 33.5733 109.391 34.0333 110.151 34.0333ZM118.179 36.0333C117.112 36.0333 116.299 35.7333 115.739 35.1333C115.179 34.52 114.899 33.6467 114.899 32.5133V21.8333H117.099V32.6733C117.099 33.1533 117.192 33.5 117.379 33.7133C117.579 33.9267 117.859 34.0333 118.219 34.0333C118.579 34.0333 118.852 33.9267 119.039 33.7133C119.239 33.5 119.339 33.1533 119.339 32.6733V21.8333H121.459V32.5133C121.459 33.6467 121.179 34.52 120.619 35.1333C120.059 35.7333 119.245 36.0333 118.179 36.0333ZM123.026 21.8333H126.266C127.359 21.8333 128.179 22.1267 128.726 22.7133C129.272 23.3 129.546 24.16 129.546 25.2933V26.6733C129.546 27.8067 129.272 28.6667 128.726 29.2533C128.179 29.84 127.359 30.1333 126.266 30.1333H125.226V35.8333H123.026V21.8333ZM126.266 28.1333C126.626 28.1333 126.892 28.0333 127.066 27.8333C127.252 27.6333 127.346 27.2933 127.346 26.8133V25.1533C127.346 24.6733 127.252 24.3333 127.066 24.1333C126.892 23.9333 126.626 23.8333 126.266 23.8333H125.226V28.1333H126.266Z" fill="#4F4F4F"/>
<path d="M39.1516 42.9167V43.7467C39.4583 43.14 39.985 42.8367 40.7316 42.8367V43.4767C40.2516 43.4767 39.8683 43.6167 39.5816 43.8967C39.295 44.17 39.1516 44.5833 39.1516 45.1367V47.9167H38.4916V42.9167H39.1516ZM43.6433 42.7967C44.39 42.7967 44.9866 43.06 45.4333 43.5867C45.8933 44.1067 46.1233 44.7233 46.1233 45.4367C46.1233 45.47 46.1166 45.5733 46.1033 45.7467H41.7134C41.7801 46.2467 41.9934 46.6467 42.3534 46.9467C42.7133 47.2467 43.1633 47.3967 43.7033 47.3967C44.4633 47.3967 45 47.1133 45.3133 46.5467L45.8933 46.8867C45.6733 47.2467 45.37 47.53 44.9833 47.7367C44.6033 47.9367 44.1733 48.0367 43.6933 48.0367C42.9066 48.0367 42.2668 47.79 41.7734 47.2967C41.2801 46.8033 41.0334 46.1767 41.0334 45.4167C41.0334 44.6633 41.2768 44.04 41.7634 43.5467C42.2501 43.0467 42.8766 42.7967 43.6433 42.7967ZM43.6433 43.4367C43.1233 43.4367 42.6866 43.59 42.3334 43.8967C41.9868 44.2033 41.7801 44.6067 41.7134 45.1067H45.4433C45.37 44.5733 45.1666 44.1633 44.8333 43.8767C44.4866 43.5833 44.09 43.4367 43.6433 43.4367ZM51.4733 43.8967V42.9167H52.1333V47.9167H51.4733V46.9367C51.0133 47.67 50.34 48.0367 49.4533 48.0367C48.74 48.0367 48.13 47.7833 47.6233 47.2767C47.1233 46.77 46.8733 46.15 46.8733 45.4167C46.8733 44.6833 47.1233 44.0633 47.6233 43.5567C48.13 43.05 48.74 42.7967 49.4533 42.7967C50.34 42.7967 51.0133 43.1633 51.4733 43.8967ZM48.1033 46.8267C48.4833 47.2067 48.95 47.3967 49.5033 47.3967C50.0566 47.3967 50.5233 47.2067 50.9033 46.8267C51.2833 46.4333 51.4733 45.9633 51.4733 45.4167C51.4733 44.8633 51.2833 44.3967 50.9033 44.0167C50.5233 43.63 50.0566 43.4367 49.5033 43.4367C48.95 43.4367 48.4833 43.63 48.1033 44.0167C47.7233 44.3967 47.5333 44.8633 47.5333 45.4167C47.5333 45.9633 47.7233 46.4333 48.1033 46.8267ZM54.1908 47.9167H53.5308V40.6167H54.1908V47.9167ZM60.4012 42.7967C61.1479 42.7967 61.7446 43.06 62.1912 43.5867C62.6512 44.1067 62.8812 44.7233 62.8812 45.4367C62.8812 45.47 62.8746 45.5733 62.8612 45.7467H58.4712C58.5379 46.2467 58.7512 46.6467 59.1112 46.9467C59.4712 47.2467 59.9212 47.3967 60.4612 47.3967C61.2212 47.3967 61.7579 47.1133 62.0712 46.5467L62.6512 46.8867C62.4312 47.2467 62.1279 47.53 61.7412 47.7367C61.3612 47.9367 60.9312 48.0367 60.4512 48.0367C59.6646 48.0367 59.0246 47.79 58.5312 47.2967C58.0379 46.8033 57.7912 46.1767 57.7912 45.4167C57.7912 44.6633 58.0346 44.04 58.5212 43.5467C59.0079 43.0467 59.6346 42.7967 60.4012 42.7967ZM60.4012 43.4367C59.8812 43.4367 59.4446 43.59 59.0912 43.8967C58.7446 44.2033 58.5379 44.6067 58.4712 45.1067H62.2012C62.1279 44.5733 61.9246 44.1633 61.5912 43.8767C61.2446 43.5833 60.8479 43.4367 60.4012 43.4367ZM64.2558 44.2267C64.2558 44.6133 64.5991 44.8967 65.2858 45.0767C65.4791 45.1233 65.6058 45.1567 65.6658 45.1767C65.7258 45.19 65.8425 45.2267 66.0158 45.2867C66.1958 45.34 66.3191 45.3867 66.3858 45.4267C66.4591 45.4667 66.5591 45.53 66.6858 45.6167C66.8125 45.6967 66.9025 45.78 66.9558 45.8667C67.0091 45.9467 67.0591 46.0533 67.1058 46.1867C67.1525 46.3133 67.1758 46.45 67.1758 46.5967C67.1758 47.0233 67.0058 47.37 66.6658 47.6367C66.3391 47.9033 65.9058 48.0367 65.3658 48.0367C64.8991 48.0367 64.4958 47.9333 64.1558 47.7267C63.8158 47.5133 63.5758 47.2333 63.4358 46.8867L63.9958 46.5567C64.0891 46.8167 64.2558 47.0233 64.4958 47.1767C64.7425 47.3233 65.0325 47.3967 65.3658 47.3967C65.7058 47.3967 65.9825 47.33 66.1958 47.1967C66.4091 47.0633 66.5158 46.8633 66.5158 46.5967C66.5158 46.21 66.1725 45.9267 65.4858 45.7467C65.2925 45.7 65.1658 45.67 65.1058 45.6567C65.0458 45.6367 64.9258 45.6 64.7458 45.5467C64.5725 45.4867 64.4491 45.4367 64.3758 45.3967C64.3091 45.3567 64.2125 45.2967 64.0858 45.2167C63.9591 45.13 63.8691 45.0467 63.8158 44.9667C63.7625 44.88 63.7125 44.7733 63.6658 44.6467C63.6191 44.5133 63.5958 44.3733 63.5958 44.2267C63.5958 43.82 63.7558 43.48 64.0758 43.2067C64.4091 42.9333 64.8191 42.7967 65.3058 42.7967C65.7058 42.7967 66.0591 42.8867 66.3658 43.0667C66.6791 43.2467 66.9091 43.4967 67.0558 43.8167L66.5058 44.1367C66.3191 43.67 65.9191 43.4367 65.3058 43.4367C65.0058 43.4367 64.7558 43.5067 64.5558 43.6467C64.3558 43.7867 64.2558 43.98 64.2558 44.2267ZM70.7316 42.9167V43.5567H69.2916V46.5867C69.2916 46.86 69.345 47.0567 69.4516 47.1767C69.5583 47.29 69.7183 47.35 69.9316 47.3567C70.145 47.3567 70.4116 47.35 70.7316 47.3367V47.9167C70.0183 48.0233 69.4883 47.9733 69.1416 47.7667C68.8016 47.5533 68.6316 47.16 68.6316 46.5867V43.5567H67.5816V42.9167H68.6316V41.7167L69.2916 41.5167V42.9167H70.7316ZM75.8287 43.8967V42.9167H76.4887V47.9167H75.8287V46.9367C75.3687 47.67 74.6954 48.0367 73.8087 48.0367C73.0954 48.0367 72.4854 47.7833 71.9787 47.2767C71.4787 46.77 71.2287 46.15 71.2287 45.4167C71.2287 44.6833 71.4787 44.0633 71.9787 43.5567C72.4854 43.05 73.0954 42.7967 73.8087 42.7967C74.6954 42.7967 75.3687 43.1633 75.8287 43.8967ZM72.4587 46.8267C72.8387 47.2067 73.3054 47.3967 73.8587 47.3967C74.4121 47.3967 74.8787 47.2067 75.2587 46.8267C75.6387 46.4333 75.8287 45.9633 75.8287 45.4167C75.8287 44.8633 75.6387 44.3967 75.2587 44.0167C74.8787 43.63 74.4121 43.4367 73.8587 43.4367C73.3054 43.4367 72.8387 43.63 72.4587 44.0167C72.0787 44.3967 71.8887 44.8633 71.8887 45.4167C71.8887 45.9633 72.0787 46.4333 72.4587 46.8267ZM80.5362 42.9167V43.5567H79.0962V46.5867C79.0962 46.86 79.1496 47.0567 79.2562 47.1767C79.3629 47.29 79.5229 47.35 79.7362 47.3567C79.9496 47.3567 80.2162 47.35 80.5362 47.3367V47.9167C79.8229 48.0233 79.2929 47.9733 78.9462 47.7667C78.6062 47.5533 78.4362 47.16 78.4362 46.5867V43.5567H77.3862V42.9167H78.4362V41.7167L79.0962 41.5167V42.9167H80.5362ZM83.6433 42.7967C84.39 42.7967 84.9866 43.06 85.4333 43.5867C85.8933 44.1067 86.1233 44.7233 86.1233 45.4367C86.1233 45.47 86.1166 45.5733 86.1033 45.7467H81.7133C81.78 46.2467 81.9933 46.6467 82.3533 46.9467C82.7133 47.2467 83.1633 47.3967 83.7033 47.3967C84.4633 47.3967 85 47.1133 85.3133 46.5467L85.8933 46.8867C85.6733 47.2467 85.37 47.53 84.9833 47.7367C84.6033 47.9367 84.1733 48.0367 83.6933 48.0367C82.9066 48.0367 82.2666 47.79 81.7733 47.2967C81.28 46.8033 81.0333 46.1767 81.0333 45.4167C81.0333 44.6633 81.2766 44.04 81.7633 43.5467C82.25 43.0467 82.8766 42.7967 83.6433 42.7967ZM83.6433 43.4367C83.1233 43.4367 82.6866 43.59 82.3333 43.8967C81.9866 44.2033 81.78 44.6067 81.7133 45.1067H85.4433C85.37 44.5733 85.1666 44.1633 84.8333 43.8767C84.4866 43.5833 84.09 43.4367 83.6433 43.4367Z" fill="#4F4F4F"/>
<path d="M8.20831 14.1667L31.5416 0V50H8.20831V14.1667Z" fill="#00BC62" fill-opacity="0.9"/>
<path d="M8.20831 14.1667L24.0416 21.0417V50H8.20831V14.1667Z" fill="#CFCFCF" fill-opacity="0.7"/>
<path d="M0.708313 35L24.0416 21.6667V50H0.708313V35Z" fill="#5F5F5F" fill-opacity="0.5"/>
<path d="M0.708313 35L31.5416 41.0417V50H0.708313V35Z" fill="#444444" fill-opacity="0.7"/>
</g>
<defs>
<clipPath id="clip0_1_307">
<rect width="129.583" height="50" fill="white" transform="translate(0.708313)"/>
</clipPath>
</defs>
</svg>
